<svg version="1.2" xmlns="http://www.w3.org/2000/svg" viewBox="0 0 18 22" width="50" height="61">
	<title>logo-black-D3OS3h98-svg</title>
	<style>
		.s0 { fill: #495567 } 
	</style>
	<path id="scoot" fill-rule="evenodd" class="s0" d="m107.1 16.2v4.8h-8.4q-1.4 0-2.2-0.9-0.9-0.9-0.9-2.2v-11.9h-5.9v-4.8h5.9v-8.2h5.1v8.2h7.1v4.8h-7.1v9q0 1.2 1 1.2zm-101.9 4.8q-1.6-0.6-2.7-1.5-1.1-0.9-1.7-2-0.6-1.1-0.8-2.2l4.7-1.5q0.3 1.3 1.3 2.2 1 1 3.2 1 1.8 0 2.5-0.6 0.7-0.6 0.7-1.2 0-0.4-0.1-0.8-0.2-0.3-0.7-0.6-0.5-0.3-1.3-0.5-0.8-0.2-2.1-0.3-3.3-0.3-5.3-1.8-2-1.4-2-4.3v-0.2q0-1.5 0.7-2.6 0.6-1.1 1.6-1.9 1.1-0.8 2.4-1.2 1.4-0.4 2.8-0.4 1.9 0 3.3 0.5 1.4 0.4 2.3 1.2 1 0.7 1.6 1.6 0.6 0.9 0.9 1.7l-4.5 1.9q-0.4-1.1-1.3-1.7-0.9-0.6-2.3-0.6-1.2 0-1.9 0.4-0.6 0.5-0.6 1.2 0 0.9 1 1.3 1 0.5 3.6 0.7 3.1 0.4 5 1.9 1.9 1.5 1.9 4.1v0.3q0 2.9-2.2 4.7-2.1 1.8-6 1.8-2.4 0-4-0.6zm22.3-0.1q-1.9-0.7-3.3-2-1.4-1.3-2.2-3.1-0.8-1.9-0.8-4.3v-0.5q0-2.4 0.8-4.3 0.8-1.9 2.2-3.3 1.5-1.4 3.4-2.1 1.9-0.7 4-0.7 4.2 0 6.8 2.2 2.5 2.1 3.2 5.6l-4.9 1.3q-0.3-1.7-1.6-3-1.2-1.3-3.6-1.3-1 0-2 0.4-1 0.4-1.7 1.1-0.7 0.8-1.1 1.8-0.4 1.1-0.4 2.4v0.3q0 1.3 0.4 2.3 0.4 1 1.1 1.7 0.7 0.7 1.7 1 1 0.4 2 0.4 2.4 0 3.6-1.2 1.2-1.2 1.6-3.1l4.9 1.2q-0.7 3.5-3.2 5.7-2.5 2.2-6.8 2.2-2.2 0-4.1-0.7zm30.5 0q-1.9 0.7-3.9 0.7-2.1 0-3.9-0.7-1.9-0.7-3.3-2-1.5-1.3-2.3-3.2-0.9-1.9-0.9-4.4v-0.5q0-2.4 0.9-4.3 0.8-1.9 2.3-3.2 1.4-1.3 3.3-2 1.8-0.7 3.9-0.7 2 0 3.9 0.7 1.8 0.7 3.3 2 1.4 1.3 2.2 3.2 0.9 1.9 0.9 4.3v0.5q0 2.5-0.9 4.4-0.8 1.9-2.2 3.2-1.5 1.3-3.3 2zm-1.9-4.5q1-0.4 1.7-1 0.7-0.7 1.1-1.7 0.4-1 0.4-2.2v-0.8q0-1.3-0.4-2.2-0.4-1-1.1-1.7-0.7-0.7-1.7-1-1-0.4-2-0.4-1.1 0-2.1 0.4-0.9 0.3-1.7 1-0.7 0.7-1.1 1.7-0.4 0.9-0.4 2.2v0.8q0 1.2 0.4 2.2 0.4 1 1.1 1.7 0.8 0.6 1.7 1 1 0.4 2.1 0.4 1 0 2-0.4zm24.6 4.5q-1.9 0.7-3.9 0.7-2.1 0-3.9-0.7-1.9-0.7-3.3-2-1.5-1.3-2.3-3.2-0.9-1.9-0.9-4.4v-0.5q0-2.4 0.9-4.3 0.8-1.9 2.3-3.2 1.4-1.3 3.3-2 1.8-0.7 3.9-0.7 2 0 3.9 0.7 1.8 0.7 3.3 2 1.4 1.3 2.2 3.2 0.9 1.9 0.9 4.3v0.5q0 2.5-0.9 4.4-0.8 1.9-2.2 3.2-1.5 1.3-3.3 2zm-1.9-4.5q1-0.4 1.7-1 0.7-0.7 1.1-1.7 0.4-1 0.4-2.2v-0.8q0-1.3-0.4-2.2-0.4-1-1.1-1.7-0.7-0.7-1.7-1-1-0.4-2-0.4-1.1 0-2.1 0.4-0.9 0.3-1.7 1-0.7 0.7-1.1 1.7-0.4 0.9-0.4 2.2v0.8q0 1.2 0.4 2.2 0.4 1 1.1 1.7 0.8 0.6 1.7 1 1 0.4 2.1 0.4 1 0 2-0.4z"/>
</svg>