<svg width="131" height="40" viewBox="0 0 131 40" fill="none" xmlns="http://www.w3.org/2000/svg">
<rect x="0.428711" width="130" height="40" rx="4" fill="#E5ECF4"/>
<path fill-rule="evenodd" clip-rule="evenodd" d="M42.9431 30.5358C42.6192 30.7882 42.1335 30.9144 41.4859 30.9144C41.0288 30.9144 40.6002 30.8287 40.2002 30.6573C39.8002 30.4858 39.4526 30.2311 39.1573 29.893C38.8621 29.5549 38.6288 29.1358 38.4573 28.6358C38.2859 28.1358 38.2002 27.5525 38.2002 26.8858V24.543C38.2002 23.8954 38.2931 23.3215 38.4788 22.8215C38.6645 22.3215 38.9216 21.9001 39.2502 21.5573C39.5788 21.2144 39.9716 20.9549 40.4288 20.7787C40.8859 20.6025 41.3907 20.5144 41.9431 20.5144C42.5145 20.5144 43.024 20.6073 43.4716 20.793C43.9192 20.9787 44.3002 21.2358 44.6145 21.5644C44.9288 21.893 45.1669 22.2787 45.3288 22.7215C45.4907 23.1644 45.5716 23.6382 45.5716 24.143V24.3144H43.6859V24.143C43.6859 23.543 43.5311 23.0882 43.2216 22.7787C42.9121 22.4692 42.4764 22.3144 41.9145 22.3144C41.3811 22.3144 40.9431 22.493 40.6002 22.8501C40.2573 23.2073 40.0859 23.8192 40.0859 24.6858V26.8001C40.0859 28.343 40.7145 29.1144 41.9716 29.1144C42.5335 29.1144 42.9597 28.9644 43.2502 28.6644C43.5407 28.3644 43.6859 27.962 43.6859 27.4573H41.2859V25.6573H45.5716V30.7144H43.8573V29.6001H43.6002C43.4859 29.9715 43.2669 30.2835 42.9431 30.5358ZM51.441 30.6715C50.9982 30.8335 50.5339 30.9144 50.0482 30.9144C49.5624 30.9144 49.0982 30.8335 48.6553 30.6715C48.2124 30.5096 47.8196 30.2739 47.4767 29.9644C47.1339 29.6549 46.8624 29.2739 46.6624 28.8215C46.4624 28.3692 46.3624 27.8477 46.3624 27.2573V27.0858C46.3624 26.5049 46.4624 25.9882 46.6624 25.5358C46.8624 25.0835 47.1339 24.7001 47.4767 24.3858C47.8196 24.0715 48.2124 23.8335 48.6553 23.6715C49.0982 23.5096 49.5624 23.4287 50.0482 23.4287C50.5339 23.4287 50.9982 23.5096 51.441 23.6715C51.8839 23.8335 52.2767 24.0715 52.6196 24.3858C52.9624 24.7001 53.2339 25.0835 53.4339 25.5358C53.6339 25.9882 53.7339 26.5049 53.7339 27.0858V27.2573C53.7339 27.8477 53.6339 28.3692 53.4339 28.8215C53.2339 29.2739 52.9624 29.6549 52.6196 29.9644C52.2767 30.2739 51.8839 30.5096 51.441 30.6715ZM50.0482 29.2001C49.791 29.2001 49.5482 29.1573 49.3196 29.0715C49.091 28.9858 48.891 28.862 48.7196 28.7001C48.5482 28.5382 48.4124 28.3406 48.3124 28.1073C48.2124 27.8739 48.1624 27.6096 48.1624 27.3144V27.0287C48.1624 26.7335 48.2124 26.4692 48.3124 26.2358C48.4124 26.0025 48.5482 25.8049 48.7196 25.643C48.891 25.4811 49.091 25.3573 49.3196 25.2715C49.5482 25.1858 49.791 25.143 50.0482 25.143C50.3053 25.143 50.5482 25.1858 50.7767 25.2715C51.0053 25.3573 51.2053 25.4811 51.3767 25.643C51.5482 25.8049 51.6839 26.0025 51.7839 26.2358C51.8839 26.4692 51.9339 26.7335 51.9339 27.0287V27.3144C51.9339 27.6096 51.8839 27.8739 51.7839 28.1073C51.6839 28.3406 51.5482 28.5382 51.3767 28.7001C51.2053 28.862 51.0053 28.9858 50.7767 29.0715C50.5482 29.1573 50.3053 29.2001 50.0482 29.2001ZM59.5461 30.6715C59.1033 30.8335 58.639 30.9144 58.1533 30.9144C57.6675 30.9144 57.2033 30.8335 56.7604 30.6715C56.3175 30.5096 55.9247 30.2739 55.5818 29.9644C55.239 29.6549 54.9675 29.2739 54.7675 28.8215C54.5675 28.3692 54.4675 27.8477 54.4675 27.2573V27.0858C54.4675 26.5049 54.5675 25.9882 54.7675 25.5358C54.9675 25.0835 55.239 24.7001 55.5818 24.3858C55.9247 24.0715 56.3175 23.8335 56.7604 23.6715C57.2033 23.5096 57.6675 23.4287 58.1533 23.4287C58.639 23.4287 59.1033 23.5096 59.5461 23.6715C59.989 23.8335 60.3818 24.0715 60.7247 24.3858C61.0675 24.7001 61.339 25.0835 61.539 25.5358C61.739 25.9882 61.839 26.5049 61.839 27.0858V27.2573C61.839 27.8477 61.739 28.3692 61.539 28.8215C61.339 29.2739 61.0675 29.6549 60.7247 29.9644C60.3818 30.2739 59.989 30.5096 59.5461 30.6715ZM58.1533 29.2001C57.8961 29.2001 57.6533 29.1573 57.4247 29.0715C57.1961 28.9858 56.9961 28.862 56.8247 28.7001C56.6533 28.5382 56.5175 28.3406 56.4175 28.1073C56.3175 27.8739 56.2675 27.6096 56.2675 27.3144V27.0287C56.2675 26.7335 56.3175 26.4692 56.4175 26.2358C56.5175 26.0025 56.6533 25.8049 56.8247 25.643C56.9961 25.4811 57.1961 25.3573 57.4247 25.2715C57.6533 25.1858 57.8961 25.143 58.1533 25.143C58.4104 25.143 58.6533 25.1858 58.8818 25.2715C59.1104 25.3573 59.3104 25.4811 59.4818 25.643C59.6533 25.8049 59.789 26.0025 59.889 26.2358C59.989 26.4692 60.039 26.7335 60.039 27.0287V27.3144C60.039 27.6096 59.989 27.8739 59.889 28.1073C59.789 28.3406 59.6533 28.5382 59.4818 28.7001C59.3104 28.862 59.1104 28.9858 58.8818 29.0715C58.6533 29.1573 58.4104 29.2001 58.1533 29.2001ZM69.5512 33.2573C69.3465 33.4668 69.0822 33.5715 68.7584 33.5715H63.9869V31.8573H67.6726C67.9298 31.8573 68.0584 31.7144 68.0584 31.4287V29.6858H67.8012C67.725 29.8477 67.6322 30.0025 67.5226 30.1501C67.4131 30.2977 67.2703 30.4287 67.0941 30.543C66.9179 30.6573 66.7084 30.7477 66.4655 30.8144C66.2226 30.8811 65.9298 30.9144 65.5869 30.9144C65.1488 30.9144 64.7417 30.8358 64.3655 30.6787C63.9893 30.5215 63.6607 30.2882 63.3798 29.9787C63.0988 29.6692 62.8798 29.2906 62.7226 28.843C62.5655 28.3954 62.4869 27.8811 62.4869 27.3001V27.043C62.4869 26.4715 62.5703 25.962 62.7369 25.5144C62.9036 25.0668 63.1322 24.6882 63.4226 24.3787C63.7131 24.0692 64.0512 23.8335 64.4369 23.6715C64.8226 23.5096 65.2298 23.4287 65.6584 23.4287C66.2298 23.4287 66.6822 23.5358 67.0155 23.7501C67.3488 23.9644 67.6107 24.2668 67.8012 24.6573H68.0584V23.6287H69.8584V32.4573C69.8584 32.7811 69.756 33.0477 69.5512 33.2573ZM66.1726 29.2001C65.6107 29.2001 65.156 29.0263 64.8084 28.6787C64.4607 28.3311 64.2869 27.8573 64.2869 27.2573V27.0858C64.2869 26.4858 64.4607 26.012 64.8084 25.6644C65.156 25.3168 65.6107 25.143 66.1726 25.143C66.7345 25.143 67.1893 25.3215 67.5369 25.6787C67.8845 26.0358 68.0584 26.5049 68.0584 27.0858V27.2573C68.0584 27.8382 67.8845 28.3073 67.5369 28.6644C67.1893 29.0215 66.7345 29.2001 66.1726 29.2001ZM77.6635 29.0001V30.7144H71.0635V29.0001H73.5492V22.4287H71.1492V20.7144H75.3492V29.0001H77.6635ZM82.54 30.9144C83.0067 30.9144 83.4138 30.862 83.7614 30.7573C84.109 30.6525 84.4043 30.5192 84.6471 30.3573C84.89 30.1954 85.0876 30.0168 85.24 29.8215C85.3924 29.6263 85.5114 29.4382 85.5971 29.2573L84.0543 28.4001C83.9495 28.6192 83.7781 28.8073 83.54 28.9644C83.3019 29.1215 82.959 29.2001 82.5114 29.2001C82.2828 29.2001 82.0662 29.1644 81.8614 29.093C81.6567 29.0215 81.4757 28.9215 81.3186 28.793C81.1614 28.6644 81.0376 28.512 80.9471 28.3358C80.8567 28.1596 80.8067 27.9668 80.7971 27.7573H85.9971V26.8001C85.9971 26.4287 85.9305 26.0454 85.7971 25.6501C85.6638 25.2549 85.4543 24.893 85.1686 24.5644C84.8828 24.2358 84.5209 23.9644 84.0828 23.7501C83.6448 23.5358 83.1209 23.4287 82.5114 23.4287C82.0162 23.4287 81.5519 23.5168 81.1186 23.693C80.6852 23.8692 80.3067 24.1144 79.9828 24.4287C79.659 24.743 79.4043 25.1239 79.2186 25.5715C79.0328 26.0192 78.94 26.5144 78.94 27.0573V27.143C78.94 27.7335 79.0281 28.262 79.2043 28.7287C79.3805 29.1954 79.6281 29.5906 79.9471 29.9144C80.2662 30.2382 80.6448 30.4858 81.0828 30.6573C81.5209 30.8287 82.0067 30.9144 82.54 30.9144ZM80.8257 26.2144H84.1686C84.1114 25.8811 83.9328 25.6049 83.6329 25.3858C83.3328 25.1668 82.9543 25.0573 82.4971 25.0573C82.04 25.0573 81.6686 25.1739 81.3829 25.4073C81.0971 25.6406 80.9114 25.9096 80.8257 26.2144ZM89.1165 30.7144V26.943H91.1451C91.6594 26.943 92.107 26.8573 92.488 26.6858C92.8689 26.5144 93.1856 26.2882 93.438 26.0073C93.6903 25.7263 93.8808 25.4073 94.0094 25.0501C94.138 24.693 94.2022 24.3287 94.2022 23.9573V23.6144C94.2022 23.2525 94.138 22.8977 94.0094 22.5501C93.8808 22.2025 93.6903 21.893 93.438 21.6215C93.1856 21.3501 92.8689 21.1311 92.488 20.9644C92.107 20.7977 91.6594 20.7144 91.1451 20.7144H87.2308V30.7144H89.1165ZM89.1165 25.143H90.9594C91.3784 25.143 91.7094 25.0287 91.9522 24.8001C92.1951 24.5715 92.3165 24.2763 92.3165 23.9144V23.743C92.3165 23.3811 92.1951 23.0858 91.9522 22.8573C91.7094 22.6287 91.3784 22.5144 90.9594 22.5144H89.1165V25.143ZM101.979 30.7144V29.0001H99.6645V20.7144H95.4645V22.4287H97.8645V29.0001H95.3788V30.7144H101.979ZM107.312 30.6358C106.97 30.8215 106.57 30.9144 106.112 30.9144C105.684 30.9144 105.281 30.8335 104.905 30.6715C104.529 30.5096 104.198 30.2715 103.912 29.9573C103.627 29.643 103.401 29.262 103.234 28.8144C103.067 28.3668 102.984 27.8573 102.984 27.2858V27.0573C102.984 26.4954 103.065 25.9906 103.227 25.543C103.389 25.0954 103.608 24.7144 103.884 24.4001C104.16 24.0858 104.481 23.8454 104.848 23.6787C105.215 23.512 105.608 23.4287 106.027 23.4287C106.531 23.4287 106.939 23.5144 107.248 23.6858C107.558 23.8573 107.803 24.1239 107.984 24.4858H108.241V23.6287H110.041V28.5715C110.041 28.8573 110.17 29.0001 110.427 29.0001H110.698V30.7144H109.47C109.146 30.7144 108.881 30.6192 108.677 30.4287C108.472 30.2382 108.37 29.9906 108.37 29.6858H108.112C107.922 30.1335 107.655 30.4501 107.312 30.6358ZM106.512 29.2001C105.989 29.2001 105.57 29.0263 105.255 28.6787C104.941 28.3311 104.784 27.8573 104.784 27.2573V27.0858C104.784 26.4858 104.941 26.012 105.255 25.6644C105.57 25.3168 105.989 25.143 106.512 25.143C107.036 25.143 107.455 25.3168 107.77 25.6644C108.084 26.012 108.241 26.4858 108.241 27.0858V27.2573C108.241 27.8573 108.084 28.3311 107.77 28.6787C107.455 29.0263 107.036 29.2001 106.512 29.2001ZM117.925 33.2573C117.72 33.4668 117.456 33.5715 117.132 33.5715H112.918V31.8573H116.046C116.303 31.8573 116.432 31.7144 116.432 31.4287V29.6858H116.175C115.86 30.5049 115.184 30.9144 114.146 30.9144C113.794 30.9144 113.465 30.8573 113.16 30.743C112.856 30.6287 112.589 30.4525 112.36 30.2144C112.132 29.9763 111.953 29.6787 111.825 29.3215C111.696 28.9644 111.632 28.543 111.632 28.0573V23.6287H113.432V27.6858C113.432 28.1906 113.551 28.5835 113.789 28.8644C114.027 29.1454 114.384 29.2858 114.86 29.2858C115.403 29.2858 115.801 29.112 116.053 28.7644C116.306 28.4168 116.432 27.943 116.432 27.343V23.6287H118.232V32.4573C118.232 32.7811 118.129 33.0477 117.925 33.2573Z" fill="#495567"/>
<path fill-rule="evenodd" clip-rule="evenodd" d="M56.0464 9.65719C56.1369 9.65719 56.2238 9.63933 56.3071 9.60362C56.3905 9.56791 56.4631 9.52029 56.525 9.46076C56.5869 9.40124 56.6357 9.32981 56.6714 9.24648C56.7071 9.16314 56.725 9.07386 56.725 8.97862C56.725 8.88338 56.7071 8.7941 56.6714 8.71076C56.6357 8.62743 56.5869 8.556 56.525 8.49648C56.4631 8.43695 56.3905 8.38933 56.3071 8.35362C56.2238 8.31791 56.1369 8.30005 56.0464 8.30005C55.9512 8.30005 55.8631 8.31791 55.7821 8.35362C55.7012 8.38933 55.6298 8.43695 55.5679 8.49648C55.506 8.556 55.4571 8.62743 55.4214 8.71076C55.3857 8.7941 55.3679 8.88338 55.3679 8.97862C55.3679 9.07386 55.3857 9.16314 55.4214 9.24648C55.4571 9.32981 55.506 9.40124 55.5679 9.46076C55.6298 9.52029 55.7012 9.56791 55.7821 9.60362C55.8631 9.63933 55.9512 9.65719 56.0464 9.65719ZM40.2577 13.4822C40.0958 13.6084 39.8529 13.6715 39.5291 13.6715C39.3005 13.6715 39.0862 13.6286 38.8862 13.5429C38.6862 13.4572 38.5124 13.3298 38.3648 13.1608C38.2172 12.9917 38.1005 12.7822 38.0148 12.5322C37.9291 12.2822 37.8862 11.9905 37.8862 11.6572V10.4858C37.8862 10.162 37.9327 9.87505 38.0255 9.62505C38.1184 9.37505 38.2469 9.16433 38.4112 8.99291C38.5755 8.82148 38.7719 8.69172 39.0005 8.60362C39.2291 8.51553 39.4815 8.47148 39.7577 8.47148C40.0434 8.47148 40.2981 8.51791 40.5219 8.61076C40.7458 8.70362 40.9362 8.83219 41.0934 8.99648C41.2505 9.16076 41.3696 9.35362 41.4505 9.57505C41.5315 9.79648 41.5719 10.0334 41.5719 10.2858V10.3715H40.6291V10.2858C40.6291 9.98576 40.5517 9.75838 40.3969 9.60362C40.2422 9.44886 40.0243 9.37148 39.7434 9.37148C39.4767 9.37148 39.2577 9.46076 39.0862 9.63933C38.9148 9.81791 38.8291 10.1239 38.8291 10.5572V11.6143C38.8291 12.3858 39.1434 12.7715 39.7719 12.7715C40.0529 12.7715 40.266 12.6965 40.4112 12.5465C40.5565 12.3965 40.6291 12.1953 40.6291 11.9429H39.4291V11.0429H41.5719V13.5715H40.7148V13.0143H40.5862C40.5291 13.2 40.4196 13.356 40.2577 13.4822ZM44.4566 13.5929C44.2828 13.6453 44.0793 13.6715 43.8459 13.6715C43.5793 13.6715 43.3364 13.6286 43.1174 13.5429C42.8983 13.4572 42.709 13.3334 42.5495 13.1715C42.39 13.0096 42.2662 12.812 42.1781 12.5786C42.09 12.3453 42.0459 12.081 42.0459 11.7858V11.7429C42.0459 11.4715 42.0924 11.2239 42.1852 11C42.2781 10.7762 42.4054 10.5858 42.5674 10.4286C42.7293 10.2715 42.9185 10.1489 43.1352 10.0608C43.3519 9.97267 43.584 9.92862 43.8316 9.92862C44.1364 9.92862 44.3983 9.98219 44.6174 10.0893C44.8364 10.1965 45.0174 10.3322 45.1602 10.4965C45.3031 10.6608 45.4078 10.8417 45.4745 11.0393C45.5412 11.237 45.5745 11.4286 45.5745 11.6143V12.0929H42.9745C42.9793 12.1977 43.0043 12.2941 43.0495 12.3822C43.0947 12.4703 43.1566 12.5465 43.2352 12.6108C43.3138 12.675 43.4043 12.725 43.5066 12.7608C43.609 12.7965 43.7174 12.8143 43.8316 12.8143C44.0554 12.8143 44.2269 12.775 44.3459 12.6965C44.465 12.6179 44.5507 12.5239 44.6031 12.4143L45.3745 12.8429C45.3316 12.9334 45.2721 13.0274 45.1959 13.125C45.1197 13.2227 45.0209 13.312 44.8995 13.3929C44.7781 13.4739 44.6304 13.5405 44.4566 13.5929ZM44.6602 11.3215H42.9888C43.0316 11.1691 43.1245 11.0346 43.2674 10.9179C43.4102 10.8012 43.5959 10.7429 43.8245 10.7429C44.0531 10.7429 44.2424 10.7977 44.3924 10.9072C44.5424 11.0167 44.6316 11.1548 44.6602 11.3215ZM49.2342 12.7143V13.5715H47.7342C47.5723 13.5715 47.4401 13.5191 47.3378 13.4143C47.2354 13.3096 47.1842 13.1762 47.1842 13.0143V10.8858H46.1342V10.0286H47.1842V8.57148H48.0842V10.0286H49.3628V10.8858H48.0842V12.5C48.0842 12.6429 48.1485 12.7143 48.277 12.7143H49.2342ZM57.5322 12.7143V13.5715H54.4036V12.7143H55.6036V10.8858H54.4893V10.0286H56.5036V12.7143H57.5322ZM61.3918 13.5715V12.7143H60.4347C60.3061 12.7143 60.2418 12.6429 60.2418 12.5V10.8858H61.5204V10.0286H60.2418V8.57148H59.3418V10.0286H58.2918V10.8858H59.3418V13.0143C59.3418 13.1762 59.393 13.3096 59.4954 13.4143C59.5978 13.5191 59.7299 13.5715 59.8918 13.5715H61.3918ZM68.8219 13.55C68.6005 13.631 68.3684 13.6715 68.1255 13.6715C67.8827 13.6715 67.6505 13.631 67.4291 13.55C67.2077 13.4691 67.0112 13.3512 66.8398 13.1965C66.6684 13.0417 66.5327 12.8512 66.4327 12.625C66.3327 12.3989 66.2827 12.1381 66.2827 11.8429V11.7572C66.2827 11.4667 66.3327 11.2084 66.4327 10.9822C66.5327 10.756 66.6684 10.5643 66.8398 10.4072C67.0112 10.25 67.2077 10.131 67.4291 10.05C67.6505 9.9691 67.8827 9.92862 68.1255 9.92862C68.3684 9.92862 68.6005 9.9691 68.8219 10.05C69.0434 10.131 69.2398 10.25 69.4112 10.4072C69.5827 10.5643 69.7184 10.756 69.8184 10.9822C69.9184 11.2084 69.9684 11.4667 69.9684 11.7572V11.8429C69.9684 12.1381 69.9184 12.3989 69.8184 12.625C69.7184 12.8512 69.5827 13.0417 69.4112 13.1965C69.2398 13.3512 69.0434 13.4691 68.8219 13.55ZM68.1255 12.8143C67.9969 12.8143 67.8755 12.7929 67.7612 12.75C67.6469 12.7072 67.5469 12.6453 67.4612 12.5643C67.3755 12.4834 67.3077 12.3846 67.2577 12.2679C67.2077 12.1512 67.1827 12.0191 67.1827 11.8715V11.7286C67.1827 11.581 67.2077 11.4489 67.2577 11.3322C67.3077 11.2155 67.3755 11.1167 67.4612 11.0358C67.5469 10.9548 67.6469 10.8929 67.7612 10.85C67.8755 10.8072 67.9969 10.7858 68.1255 10.7858C68.2541 10.7858 68.3755 10.8072 68.4898 10.85C68.6041 10.8929 68.7041 10.9548 68.7898 11.0358C68.8755 11.1167 68.9434 11.2155 68.9934 11.3322C69.0434 11.4489 69.0684 11.581 69.0684 11.7286V11.8715C69.0684 12.0191 69.0434 12.1512 68.9934 12.2679C68.9434 12.3846 68.8755 12.4834 68.7898 12.5643C68.7041 12.6453 68.6041 12.7072 68.4898 12.75C68.3755 12.7929 68.2541 12.8143 68.1255 12.8143ZM71.4495 11.7286V13.5715H70.5495V10.0286H71.4495V10.5572H71.5781C71.659 10.3572 71.79 10.2024 71.9709 10.0929C72.1519 9.98338 72.3638 9.92862 72.6066 9.92862C72.7781 9.92862 72.9388 9.956 73.0888 10.0108C73.2388 10.0655 73.3709 10.15 73.4852 10.2643C73.5995 10.3786 73.6888 10.5239 73.7531 10.7C73.8174 10.8762 73.8495 11.0858 73.8495 11.3286V13.5715H72.9495V11.5572C72.9495 11.3048 72.8888 11.106 72.7674 10.9608C72.6459 10.8155 72.4709 10.7429 72.2424 10.7429C71.9757 10.7429 71.7769 10.8322 71.6459 11.0108C71.515 11.1893 71.4495 11.4286 71.4495 11.7286Z" fill="#495567"/>
<path fill-rule="evenodd" clip-rule="evenodd" d="M12.8233 10.1694C13.341 9.91976 13.9346 9.94657 14.4326 10.2464L24.3411 16.0164L21.5031 18.8677L12.8233 10.1694ZM11.8574 11.7296C11.8574 11.4641 11.9163 11.2062 12.0258 10.9744L20.7037 19.6708L12.0273 28.3884C11.9167 28.1614 11.8574 27.9073 11.8574 27.6407V11.7296ZM21.5043 20.4728L12.8385 29.1798C13.0684 29.2863 13.3131 29.3327 13.5574 29.3327C13.8591 29.3327 14.16 29.2606 14.4327 29.0967L24.343 23.318L21.5043 20.4728ZM28.1043 18.2076C28.1077 18.2095 28.1115 18.2118 28.1149 18.214C28.6265 18.5244 28.932 19.0674 28.932 19.6663C28.932 20.2651 28.6265 20.8081 28.1149 21.1189L25.355 22.7278L22.3033 19.6697L25.3531 16.6055L28.1043 18.2076Z" fill="#495567"/>
</svg>
